<?xml version="1.0" standalone="no"?>
<!DOCTYPE svg PUBLIC "-//W3C//DTD SVG 20010904//EN"
 "http://www.w3.org/TR/2001/REC-SVG-20010904/DTD/svg10.dtd">
<svg version="1.0" xmlns="http://www.w3.org/2000/svg"
 width="512.000000pt" height="512.000000pt" viewBox="0 0 512.000000 512.000000"
 preserveAspectRatio="xMidYMid meet">
<metadata>
Created by potrace 1.14, written by Peter Selinger 2001-2017
</metadata>
<g transform="translate(0.000000,512.000000) scale(0.100000,-0.100000)"
fill="#000000" stroke="none">
<path d="M2490 5110 c-92 -27 -165 -105 -185 -200 -25 -113 25 -221 128 -280
l52 -29 0 -163 0 -163 -677 -5 c-664 -5 -677 -5 -704 -26 -65 -48 -69 -61 -72
-235 l-3 -159 -47 -1 c-44 0 -114 -4 -154 -8 -26 -2 -79 -52 -94 -87 -11 -26
-14 -150 -14 -611 0 -318 2 -593 6 -610 7 -38 53 -89 91 -104 15 -5 69 -10
120 -11 l93 0 0 -147 c0 -133 2 -150 23 -185 13 -23 38 -48 60 -59 37 -19 60
-20 571 -19 l534 0 0 -114 c0 -63 -3 -115 -6 -115 -4 -1 -103 -2 -220 -3
l-212 -2 -26 -25 c-23 -23 -26 -35 -28 -112 -1 -48 -5 -89 -8 -93 -4 -3 -112
-7 -240 -8 -240 -2 -260 -5 -299 -45 -32 -34 -41 -62 -48 -147 -1 -6 -35 -10
-94 -9 -184 1 -279 -27 -355 -109 -78 -84 -102 -160 -97 -314 4 -147 34 -221
119 -294 l31 -27 1 -233 c1 -128 2 -247 3 -264 1 -36 27 -69 65 -84 19 -7 581
-10 1763 -10 1610 0 1737 1 1764 17 49 29 54 58 53 327 l-1 245 43 40 c44 41
92 123 102 176 4 16 6 82 5 145 -1 130 -16 180 -80 258 -76 93 -156 123 -335
125 -70 1 -128 4 -129 7 -1 3 -3 24 -5 48 -5 56 -30 98 -74 125 -33 21 -47 22
-280 24 -135 1 -249 2 -255 2 -6 1 -10 37 -10 86 -1 69 -5 90 -21 112 -27 36
-46 39 -262 38 l-183 0 3 115 3 115 538 2 c519 2 539 3 570 22 18 11 43 38 55
59 20 36 22 54 22 185 l0 145 91 0 c112 1 153 19 186 82 l23 43 0 589 c0 653
2 633 -66 684 -35 27 -44 29 -133 31 l-96 1 -5 160 c-4 142 -7 164 -26 188
-27 37 -63 63 -94 68 -14 3 -320 5 -680 5 l-655 1 0 166 0 166 38 20 c60 30
95 66 123 127 59 123 4 279 -120 343 -42 21 -142 31 -186 18z"/>
</g>
</svg>
